<svg height="496pt" viewBox="0 -100 496 496" width="496pt" xmlns="http://www.w3.org/2000/svg"><g fill="#d1d3d4"><path d="m88 72v24c0 8.800781 7.199219 16 16 16h8c8.800781 0 16-7.199219 16-16v-72c0-8.800781-7.199219-16-16-16h-29.800781c-6.199219 0-11.800781 3.601562-14.5 9.199219l-59.699219 126.800781h48zm0 0"/><path d="m413.800781 8h-29.800781c-8.800781 0-16 7.199219-16 16v72c0 8.800781 7.199219 16 16 16h8c8.800781 0 16-7.199219 16-16v-24l32 72h48l-59.699219-126.800781c-2.601562-5.597657-8.300781-9.199219-14.5-9.199219zm0 0"/><path d="m56 144h-48v144h169.800781c7.5 0 13.898438-5.199219 15.597657-12.5 6.902343-30.199219 36.902343-49.101562 67-42.199219 21 4.800781 37.402343 21.199219 42.203124 42.199219 1.597657 7.300781 8.097657 12.5 15.597657 12.5h169.800781v-144zm88 104h-48c-17.699219 0-32-14.300781-32-32s14.300781-32 32-32h48c17.699219 0 32 14.300781 32 32s-14.300781 32-32 32zm256 0h-48c-17.699219 0-32-14.300781-32-32s14.300781-32 32-32h48c17.699219 0 32 14.300781 32 32s-14.300781 32-32 32zm0 0"/></g><path d="m144 184h-48c-17.699219 0-32 14.300781-32 32s14.300781 32 32 32h48c17.699219 0 32-14.300781 32-32s-14.300781-32-32-32zm0 0" fill="#d80027"/><path d="m400 184h-48c-17.699219 0-32 14.300781-32 32s14.300781 32 32 32h48c17.699219 0 32-14.300781 32-32s-14.300781-32-32-32zm0 0" fill="#006df0"/><path d="m495.898438 143.699219c0-.800781-.199219-1.699219-.5-2.5 0-.097657-.097657-.300781-.097657-.398438 0-.101562 0-.101562-.101562-.199219l-59.699219-126.800781c-4-8.402343-12.398438-13.800781-21.699219-13.800781h-29.800781c-13.300781 0-24 10.699219-24 24v72c0 13.300781 10.699219 24 24 24h8c9.601562 0 18.300781-5.699219 22.101562-14.601562l13.597657 30.601562h-359.398438l13.597657-30.601562c3.800781 8.902343 12.5 14.601562 22.101562 14.601562h8c13.300781 0 24-10.699219 24-24v-72c0-13.300781-10.699219-24-24-24h-29.800781c-9.300781 0-17.699219 5.398438-21.699219 13.800781l-59.699219 126.800781c0 .097657 0 .097657-.101562.199219-.097657.097657-.097657.300781-.097657.398438-.300781.800781-.5 1.601562-.5 2.5 0 .101562-.101562.199219-.101562.300781v144c0 4.398438 3.601562 8 8 8h169.800781c11.199219 0 20.898438-7.800781 23.398438-18.699219 5.902343-25.800781 31.601562-42 57.5-36.101562 18 4.101562 32 18.101562 36.101562 36.101562 2.398438 11 12.097657 18.699219 23.398438 18.699219h169.800781c4.398438 0 8-3.601562 8-8v-144c0-.101562-.101562-.199219-.101562-.300781zm-80.597657-74.898438c-1.800781-4-6.5-5.902343-10.601562-4.101562-2.898438 1.300781-4.800781 4.199219-4.800781 7.300781v24c0 4.398438-3.597657 8-8 8h-8c-4.398438 0-8-3.601562-8-8v-72c0-4.398438 3.601562-8 8-8h29.800781c3.101562 0 5.902343 1.800781 7.199219 4.601562l54.5 115.398438h-30.199219zm-340.402343-48.199219c1.300781-2.800781 4.101562-4.601562 7.203124-4.601562h29.898438c4.398438 0 8 3.601562 8 8v72c0 4.398438-3.601562 8-8 8h-8c-4.398438 0-8-3.601562-8-8v-24c0-4.398438-3.601562-8-8-8-3.199219 0-6 1.898438-7.300781 4.800781l-29.898438 67.199219h-30.199219zm405.101562 259.398438h-161.800781c-3.699219 0-7-2.601562-7.800781-6.199219-7.898438-34.5-42.199219-56-76.597657-48.199219-24 5.5-42.699219 24.199219-48.199219 48.199219-.800781 3.597657-4 6.199219-7.800781 6.199219h-161.800781v-128h464zm0 0" fill="#231f20"/><path d="m144 176h-48c-22.101562 0-40 17.898438-40 40s17.898438 40 40 40h48c22.101562 0 40-17.898438 40-40s-17.898438-40-40-40zm0 64h-48c-13.300781 0-24-10.699219-24-24s10.699219-24 24-24h48c13.300781 0 24 10.699219 24 24s-10.699219 24-24 24zm0 0" fill="#231f20"/><path d="m400 176h-48c-22.101562 0-40 17.898438-40 40s17.898438 40 40 40h48c22.101562 0 40-17.898438 40-40s-17.898438-40-40-40zm0 64h-48c-13.300781 0-24-10.699219-24-24s10.699219-24 24-24h48c13.300781 0 24 10.699219 24 24s-10.699219 24-24 24zm0 0" fill="#231f20"/></svg>