<svg height="496pt" viewBox="0 -72 496 496" width="496pt" xmlns="http://www.w3.org/2000/svg"><path d="m472 8h-448c-8.835938 0-16 7.164062-16 16v272c0 8.835938 7.164062 16 16 16h448c8.835938 0 16-7.164062 16-16v-272c0-8.835938-7.164062-16-16-16zm-144 256c0 8.835938-7.164062 16-16 16h-256c-8.835938 0-16-7.164062-16-16v-208c0-8.835938 7.164062-16 16-16h256c8.835938 0 16 7.164062 16 16zm128 0c0 8.835938-7.164062 16-16 16h-64c-8.835938 0-16-7.164062-16-16v-208c0-8.835938 7.164062-16 16-16h64c8.835938 0 16 7.164062 16 16zm0 0" fill="#754c29"/><path d="m440 40h-64c-8.835938 0-16 7.164062-16 16v208c0 8.835938 7.164062 16 16 16h64c8.835938 0 16-7.164062 16-16v-208c0-8.835938-7.164062-16-16-16zm-56 40h48v48h-48zm-16 80" fill="#d1d3d4"/><path d="m312 40h-256c-8.835938 0-16 7.164062-16 16v208c0 8.835938 7.164062 16 16 16h256c8.835938 0 16-7.164062 16-16v-208c0-8.835938-7.164062-16-16-16zm-8 184c0 17.671875-14.328125 32-32 32h-176c-17.671875 0-32-14.328125-32-32v-128c0-17.671875 14.328125-32 32-32h176c17.671875 0 32 14.328125 32 32zm0 0" fill="#d1d3d4"/><path d="m96 64h176c17.671875 0 32 14.328125 32 32v128c0 17.671875-14.328125 32-32 32h-176c-17.671875 0-32-14.328125-32-32v-128c0-17.671875 14.328125-32 32-32zm0 0" fill="#006df0"/><path d="m384 80h48v48h-48zm0 0" fill="#006df0"/><path d="m32 344h432l-16-32h-400zm0 0" fill="#603913"/><g fill="#231f20"><path d="m472 0h-448c-13.253906 0-24 10.746094-24 24v272c0 13.253906 10.746094 24 24 24h11.054688l-10.214844 20.425781c-1.238282 2.480469-1.105469 5.425781.351562 7.78125 1.460938 2.359375 4.035156 3.792969 6.808594 3.792969h432c2.78125.015625 5.367188-1.414062 6.835938-3.773438 1.46875-2.363281 1.605468-5.316406.363281-7.800781l-10.253907-20.425781h11.054688c13.253906 0 24-10.746094 24-24v-272c0-13.253906-10.746094-24-24-24zm-20.945312 336h-406.109376l8-16h390.109376zm28.945312-40c0 4.417969-3.582031 8-8 8h-448c-4.417969 0-8-3.582031-8-8v-272c0-4.417969 3.582031-8 8-8h448c4.417969 0 8 3.582031 8 8zm0 0"/><path d="m440 32h-64c-13.253906 0-24 10.746094-24 24v208c0 13.253906 10.746094 24 24 24h64c13.253906 0 24-10.746094 24-24v-208c0-13.253906-10.746094-24-24-24zm8 152h-80v-16h80zm-80 16h80v16h-80zm0-144c0-4.417969 3.582031-8 8-8h64c4.417969 0 8 3.582031 8 8v96h-80zm80 208c0 4.417969-3.582031 8-8 8h-64c-4.417969 0-8-3.582031-8-8v-32h80zm0 0"/><path d="m312 32h-256c-13.253906 0-24 10.746094-24 24v208c0 13.253906 10.746094 24 24 24h256c13.253906 0 24-10.746094 24-24v-208c0-13.253906-10.746094-24-24-24zm8 232c0 4.417969-3.582031 8-8 8h-256c-4.417969 0-8-3.582031-8-8v-208c0-4.417969 3.582031-8 8-8h256c4.417969 0 8 3.582031 8 8zm0 0"/><path d="m272 56h-176c-22.082031.027344-39.972656 17.917969-40 40v128c.027344 22.082031 17.917969 39.972656 40 40h176c22.082031-.027344 39.972656-17.917969 40-40v-128c-.027344-22.082031-17.917969-39.972656-40-40zm24 168c0 13.253906-10.746094 24-24 24h-176c-13.253906 0-24-10.746094-24-24v-128c0-13.253906 10.746094-24 24-24h176c13.253906 0 24 10.746094 24 24zm0 0"/><path d="m432 72h-48c-4.417969 0-8 3.582031-8 8v48c0 4.417969 3.582031 8 8 8h48c4.417969 0 8-3.582031 8-8v-48c0-4.417969-3.582031-8-8-8zm-8 48h-32v-32h32zm0 0"/></g></svg>